<svg xmlns="http://www.w3.org/2000/svg" width="32" height="32" viewBox="0 0 32 32" fill="none">
  <g clip-path="url(#clip0_922_4029)">
    <path fill-rule="evenodd" clip-rule="evenodd" d="M23.9341 2.42133C25.3116 3.21662 25.7835 4.978 24.9882 6.35548L11.8682 29.08C11.0729 30.4575 9.31155 30.9294 7.93407 30.1341C6.55658 29.3389 6.08462 27.5775 6.87992 26.2L19.9999 3.47548C20.7952 2.098 22.5566 1.62604 23.9341 2.42133Z" fill="#7459D9"/>
    <path fill-rule="evenodd" clip-rule="evenodd" d="M8.06593 2.42133C6.68845 3.21662 6.21649 4.978 7.01178 6.35548L20.1318 29.08C20.9271 30.4575 22.6884 30.9294 24.0659 30.1341C25.4434 29.3389 25.9154 27.5775 25.1201 26.2L12.0001 3.47548C11.2048 2.098 9.44341 1.62604 8.06593 2.42133Z" fill="#7459D9"/>
    <path fill-rule="evenodd" clip-rule="evenodd" d="M32 16.1815C32 17.7721 30.7106 19.0615 29.12 19.0615L2.88 19.0615C1.28942 19.0615 1.12725e-07 17.7721 2.51778e-07 16.1815C3.90831e-07 14.5909 1.28942 13.3015 2.88 13.3015L29.12 13.3015C30.7106 13.3015 32 14.5909 32 16.1815Z" fill="#7459D9"/>
    <path fill-rule="evenodd" clip-rule="evenodd" d="M16 21.9414L7.01071 6.35387C6.21635 4.97585 6.6895 3.21479 8.06753 2.42043C9.44555 1.62607 11.2066 2.09923 12.001 3.47725L15.9957 10.4072L19.9827 3.46679C20.775 2.08759 22.5354 1.61182 23.9146 2.40412C25.2938 3.19643 25.7696 4.95678 24.9773 6.33598L16 21.9414Z" fill="#FF9800"/>
    <path fill-rule="evenodd" clip-rule="evenodd" d="M16.036 21.942L11.0401 13.302L20.9601 13.302L16.036 21.942Z" fill="#5B4A99"/>
  </g>
  <defs>
    <clipPath id="clip0_922_4029">
      <rect width="32" height="32" fill="white"/>
    </clipPath>
  </defs>
</svg>