<svg width="228" height="228" viewBox="0 0 228 228" fill="none" xmlns="http://www.w3.org/2000/svg">
<path fill-rule="evenodd" clip-rule="evenodd" d="M79.6746 5.29049C97.1687 -0.233356 115.738 -1.45361 133.804 1.73336C151.871 4.92033 168.901 12.4204 183.449 23.5965C197.998 34.7727 209.634 49.2948 217.37 65.9296C220.47 72.597 217.579 80.5155 210.911 83.616C204.244 86.7166 196.325 83.8251 193.225 77.1577C187.296 64.4085 178.378 53.2784 167.228 44.7127C156.078 36.147 143.025 30.3988 129.178 27.9562C115.332 25.5137 101.1 26.4489 87.6922 30.6825C74.2843 34.9161 62.0961 42.323 52.1629 52.2742C42.2296 62.2253 34.8447 74.4268 30.6352 87.8423C26.4258 101.258 25.5162 115.491 27.9837 129.333C30.4513 143.176 36.223 156.218 44.8088 167.352C53.3945 178.487 64.5407 187.385 77.3006 193.291C83.9736 196.38 86.8793 204.293 83.7908 210.966C80.7022 217.639 72.789 220.544 66.116 217.456C49.4673 209.75 34.9242 198.14 23.7219 183.612C12.5195 169.084 4.98876 152.067 1.76923 134.006C-1.45029 115.946 -0.263502 97.3745 5.22881 79.8705C10.7211 62.3664 20.3567 46.4464 33.3173 33.4625C46.2778 20.4786 62.1804 10.8143 79.6746 5.29049Z" fill="#7459D9"/>
<path fill-rule="evenodd" clip-rule="evenodd" d="M213.341 92.8734C220.672 92.2999 227.079 97.7776 227.653 105.108C229.317 126.376 224.98 147.684 215.135 166.609C205.291 185.534 190.334 201.317 171.964 212.164C165.633 215.903 157.469 213.801 153.73 207.469C149.992 201.137 152.094 192.974 158.425 189.235C172.504 180.922 183.967 168.825 191.513 154.321C199.058 139.816 202.381 123.485 201.106 107.185C200.533 99.8545 206.01 93.4469 213.341 92.8734Z" fill="#B8AFDA"/>
<path fill-rule="evenodd" clip-rule="evenodd" d="M145.261 210.632C146.588 217.864 141.8 224.803 134.568 226.129C124.339 228.005 113.902 228.473 103.546 227.52C96.2242 226.845 90.8351 220.363 91.5094 213.041C92.1836 205.719 98.666 200.33 105.988 201.004C113.925 201.735 121.924 201.376 129.764 199.938C136.996 198.612 143.934 203.399 145.261 210.632Z" fill="#7459D9" fill-opacity="0.12"/>
<ellipse cx="114.934" cy="113.984" rx="75.0397" ry="75.0397" fill="#7459D9" fill-opacity="0.04"/>
<path d="M99.238 103.832L89.786 126H86.658L96.246 104.138H83.122V101.486H99.238V103.832ZM102.545 123.518C105.423 121.206 107.679 119.313 109.311 117.84C110.943 116.344 112.314 114.791 113.425 113.182C114.558 111.55 115.125 109.952 115.125 108.388C115.125 106.915 114.762 105.759 114.037 104.92C113.334 104.059 112.189 103.628 110.603 103.628C109.061 103.628 107.86 104.115 106.999 105.09C106.16 106.042 105.707 107.323 105.639 108.932H102.647C102.737 106.393 103.508 104.433 104.959 103.05C106.409 101.667 108.279 100.976 110.569 100.976C112.903 100.976 114.751 101.622 116.111 102.914C117.493 104.206 118.185 105.985 118.185 108.252C118.185 110.133 117.618 111.969 116.485 113.76C115.374 115.528 114.105 117.092 112.677 118.452C111.249 119.789 109.424 121.353 107.203 123.144H118.899V125.728H102.545V123.518ZM122.045 106.96C122.045 105.419 122.51 104.195 123.439 103.288C124.369 102.359 125.559 101.894 127.009 101.894C128.46 101.894 129.65 102.359 130.579 103.288C131.509 104.195 131.973 105.419 131.973 106.96C131.973 108.524 131.509 109.771 130.579 110.7C129.65 111.607 128.46 112.06 127.009 112.06C125.559 112.06 124.369 111.607 123.439 110.7C122.51 109.771 122.045 108.524 122.045 106.96ZM141.901 102.268L128.131 126H125.071L138.841 102.268H141.901ZM127.009 103.798C126.239 103.798 125.627 104.07 125.173 104.614C124.743 105.135 124.527 105.917 124.527 106.96C124.527 108.003 124.743 108.796 125.173 109.34C125.627 109.884 126.239 110.156 127.009 110.156C127.78 110.156 128.392 109.884 128.845 109.34C129.299 108.773 129.525 107.98 129.525 106.96C129.525 105.917 129.299 105.135 128.845 104.614C128.392 104.07 127.78 103.798 127.009 103.798ZM135.067 121.308C135.067 119.744 135.532 118.509 136.461 117.602C137.391 116.673 138.581 116.208 140.031 116.208C141.482 116.208 142.661 116.673 143.567 117.602C144.497 118.509 144.961 119.744 144.961 121.308C144.961 122.849 144.497 124.085 143.567 125.014C142.661 125.943 141.482 126.408 140.031 126.408C138.581 126.408 137.391 125.955 136.461 125.048C135.532 124.119 135.067 122.872 135.067 121.308ZM139.997 118.146C139.227 118.146 138.615 118.418 138.161 118.962C137.708 119.483 137.481 120.265 137.481 121.308C137.481 122.328 137.708 123.11 138.161 123.654C138.615 124.175 139.227 124.436 139.997 124.436C140.768 124.436 141.38 124.175 141.833 123.654C142.287 123.11 142.513 122.328 142.513 121.308C142.513 120.265 142.287 119.483 141.833 118.962C141.38 118.418 140.768 118.146 139.997 118.146Z" fill="#101010"/>
</svg>
